<svg id="Layer_1" data-name="Layer 1" xmlns="http://www.w3.org/2000/svg" viewBox="0 0 1000 1000"><defs><style>.cls-1{fill:#c11f20;}</style></defs><title>RoninDojo-01d</title><circle class="cls-1" cx="500" cy="499.55" r="458.67"/><path d="M722.31,564.75c-25-13.61-48.28-29.78-70.72-47.25-4.69-3.64-7.86-7.64-8.39-13.68-.35-4.09-1.81-7.7-5.88-9.62-9-4.26-12.32-12.56-13.6-21.43-1-6.7-2.15-13.29-3.7-19.86-2.7-11.4-3.7-22.58,4.23-32.66a16.62,16.62,0,0,0,3.24-9.12c.81-11.58,1.19-23.18,2-34.75.29-3.86-.49-6.76-3.61-9.14-4.13-3.14-5.54-7.69-6.69-12.63-1.82-7.86-3.16-16-6-23.42-2.42-6.33-4.94-12.43-5.69-19.15s-2.63-12.73-9.8-15.47a4,4,0,0,1-2.28-2.45c-.84-4.62-3.9-5.81-8-6.1-1.24-.09-2.49-1.13-3.6-1.93-8.35-6-16.55-12.43-26-16.61-5.39-2.4-6.11-5-3-9.46,2.08-2.95,2.64-5.16-1.67-6.92a7,7,0,0,1-1.5-.85l-.73-.64c-3.85-3.53-5.54-5.26-4.53-10.63,2.7-14.32,6.62-28.7,5.26-43.27-.89-9.56-5.27-19.13-13.64-25.48-1.72-1.3-1.06-2.5-.56-3.89,1.64-4.58,1.28-8.41-3.39-11.21-1.79-1.08-3.07-3-4.6-4.55-5.89-5.92-14.17-6.6-20.79-1.5-4.75,3.66-9.29,7.59-14,11.36-1.85,1.5-3.78,2.67-6.36,1.58-7.3-3.08-13.24-.3-18.7,4.49-5.06,4.42-7.89,10.45-12,16,3,.16,4.23-2.49,6.9-3-.83,6.22-4.24,9.92-9.72,12.08,6.72.88,11.15-2.69,15.25-7,3-3.14,5.91-6.8,10.55-6.95,5.64-.18,8.65-3.37,10.12-8.08,1-3.23,3.09-5,5.61-6.62,1.75-1.1,3.66-2.79,5.42.22,1.62,2.77-.58,3.55-2.21,4.54-9.07,5.48-14.33,14.15-19.31,23.07-.3.54-.95,1.42,0,1.48,4.06.25,1.41,2.62,1,3.74-1.71,5.28-4.43,10-9.39,13.06,2.38,1.23,4.12-1.07,6.52-.87-2.78,7.74-7.79,13.22-15,18.7,6.75-.78,11-3.45,15.79-6.35-.22,9.12-4.24,15.76-9.39,22,9.88-3.25,13.87-12.16,19.05-21.09.94,3.26,1.85,5.44,2.16,7.71a51.05,51.05,0,0,1,.06,7.11c2.89-.8,3.31-3.91,5.31-5.74,2,10.11,1.29,11-9.15,12a8.24,8.24,0,0,1-1.49,0c-4.91-.43-5.32-.16-10,1.53-5.08,1.82-4.85,3.49-6.05,5a7.15,7.15,0,0,1-.94.85l-.32.21h0a1.27,1.27,0,0,1-.19.13c-6.75,4.18-11.17-4.07-17.21-1.53.11,2.46,1.9,3.7,3.73,4.68,4.63,2.48,8,6.47,11.42,10.17s5.18,8.68.89,12.35a111.4,111.4,0,0,1-37.07,21.38c-5.21,1.76-8.53,5.1-10.82,10.07-3.41,7.42-7.46,14.43-14,19.74-1.86,1.51-3.06,4.11-4,6.44-3.24,7.91-5.81,16.13-14.4,20.35-2.5,1.22-3.7,4.11-4.54,6.84a15,15,0,0,1-4.9,7.46c-4.6,3.72-4.4,7.15.35,10.62,1.1.79,3.36,1.13,2.22,4.12-15.36-2.44-31.62-2-44.47-13.85-2.54,2.52-1.2,5.09.82,7.64,1.69,2.14,4.6,3.37,5,6.49.56,4.2,3.19,4.48,6.51,3.51a25.3,25.3,0,0,1,15.14.25c6.51,2.12,8.13,6.37,3.91,11.63-6.24,7.79-14.71,12.51-24.65,12.23-4.35-.13-7.36,2.35-11.14,2.59-7.42.48-2.8,5.92-3.7,9-.7,2.4-2.2,4-3.62,5.79-1.67,2.14-1.94,4.3,1.71,5,1.5.28,3.13.57,4.21,2.18-6.69,10.12-18.14,14.46-28.55,22.24,13.94.29,13.95.32,22.89-5.59,2.08-1.37,3.75-1.91,4.84,1,2.26,6.15,5.32,3.69,7.77.39,3.52-4.74,7.91-7.48,13.51-8.14,1.79,2.53-1.1,4.66.44,7.14,2.24-1.37,4.4-2.7,6.57-4,1.95-1.17,3.91-3.4,6.22-2.23s1.71,4.22,1.33,6.29c-3.73,20.09-5.7,40.66-15.9,59-2,3.6-4,6.4-8.51,7.4-5.23,1.16-8.18,5.08-8.49,10.6a49.36,49.36,0,0,0-.11,9.09c.93,7.16-1.77,12.12-7.18,16.9-16.93,14.95-33.34,30.49-50,45.73-45.41,41.47-90.28,83.76-151.22,102.09-3.41,1-2.78,2.42-.88,4.25,4.1,3.94,9.09,4.3,14.31,3.37,19.74-3.53,36.41-13.78,52.57-24.82,50.75-34.66,95.53-76.5,140.05-118.58,5.15-4.87,9.89-8.46,17.53-7.57,5.56.64,10.88-1.31,12.46-7.71,1.39-5.66,1.63-11.65,8.4-14.25,1.23-.47,2.05-3.12,2.3-4.88,1.28-9,6.39-15.76,12.14-22.33,7.51-8.58,15.28-17,21-27,.8-1.41,2.52-3.19.73-4.89a4.72,4.72,0,0,0-5.29-.42,20,20,0,0,0-5.5,4.13c-3.8,4-7.37,8.26-11.91,13.4,1.11-7.48,4.94-12.23,8.11-17.17,12.68-19.79,29.26-37.26,35.82-60.7a4.81,4.81,0,0,1,1.43-2.37c8.75-6.89,7.48-17.58,7.82-26.38.26-7,3.62-9.14,8.06-13.34,1.71,9.59-1.4,18-1.43,26.49-.05,13-6,25.39-14.43,36-1.39,1.75-2,4.18-2.74,6.37-1.13,3.38-1.15,5.89,3.37,7.24A14.78,14.78,0,0,1,437.45,465c.64,2.31,1.46,4.59,3.71,5.66,6.66,3.17,4.26,7.27.95,11-2.45,2.74-5.58,4.89-8.51,7.17-2.73,2.13-4.62,4.59-4.18,8.27.62,5.28-1.63,9.41-5,13.27-10.74,12.41-24.35,21.57-36.43,32.46-1.85,1.66-4.48,2.35-4.33,5.71,6.81,1,16-3.19,18.12,8.12.08.4,1.16.67,1.81.9a2.63,2.63,0,0,1,1.71,3.91c-3.16,6.54-.41,9.52,5.77,11.82,4,1.48,9,4.47,7.2,9.62-2.24,6.52-1.73,12.87-1.47,19.33.32,8.06-.42,15.81-4.49,23-2.71,4.79-2.65,9.89-.8,14.87,1.56,4.2,1.92,8.34-.28,12.16-7.3,12.7-11.82,27.36-25,36a11.85,11.85,0,0,0-3,2.9c-4.66,6.37-9.69,4.78-14.87.81-1.11-.85-2.07-1.91-3.24-2.64s-2.36-3-3.94-.9c-.94,1.26-1.5,3.59.24,4.39,8.88,4.09,13,14.52,22.93,17.17,1.94.51,3.57,1.81,3,4s-2.7.91-4.13,1c-1.75.15-3.53,0-6.16,0,5.32,8,14.47,11.93,16.55,21.36.26,1.15,3,2.1,4.69,2.5a56.14,56.14,0,0,0,8.31,1c5.35.44,8.11,2.9,9,8.6,2.45,15.25.83,19.27-12.41,26.28,3.75,4.35,8.74,5.15,13.92,5.06,17.77-.32,27.26,11.31,35.92,24.51,2.77-1,3.76-5.16,7.9-5.12-1.85,8.27-3.73,16.42-1.49,24.82,1.25,4.68,3.71,8.26,8.67,8.88A134.25,134.25,0,0,0,487,834.13c8.55-.15,12-5.62,8.07-13.12-3.28-6.28-3.55-12.91-4.25-19.61-.59-5.55-.8-11.23-2.2-16.58-1.27-4.89,0-7.6,4.47-9.15,5.1-1.76,7.46,1.26,8.44,5.5,3.67,16,5.71,32.22,1.24,48.37-3.25,11.78-3.11,23.94-4.84,35.87-1.12,7.77,4,12.72,11,11.89a46,46,0,0,1,15.88.57c4,.9,6.08-.89,7.76-4.11,2.89-5.55,1.71-10.92-.7-16.12-4-8.68-6.22-17.51-3.47-27.06,2-7,5.8-13,12.79-15.31,10.12-3.32,15.07-10,11.66-20-2.08-6.1-.56-10.43,2.78-14.76,5.51-7.15,7.53-15.28,7.94-24.11.38-8.38-.73-17.54,2.32-24.9,4.48-10.83,3.75-20.55.75-31.12-1.5-5.28-2.65-11.74,2.68-15.59,8-5.78,11.4-13.83,13.41-22.86a17.53,17.53,0,0,1,7.62-11.2c3.26-2.21,6.11-5,9.3-7.37,10.38-7.63,12.32-18.73,8.68-29.45-6.8-20-8.37-41-13.67-61.24a22.79,22.79,0,0,1,2.53-18.17c1.42,2.18,2.3,3.55,3.19,4.9,12.2,18.56,28.3,34,41.35,51.9,2.46,3.37,5,6.81,9,8.63,1.72.8,3.81,1.14,5.33-.07,1.7-1.35,1.13-3.49.31-5.14a62.24,62.24,0,0,0-5.14-9.08c-10.42-14.31-21.11-28.42-31.49-42.76-8.08-11.16-15.85-22.54-23.76-33.82,7.07,2.92,12.81,7.3,19.5,9.9,4.3,1.67,8.29,2.07,7-5.86,3.53,4.3,2.37,8.31,3.29,11.83,1.18,4.57,3,9,8,9.4s5.33-4.82,6.59-8.44c.11-.29.61-.44,1.22-.84,3.86,2.39,7.89,4.71,11.74,7.3,13.31,9,26.27,18.48,39.89,26.94,21.15,13.15,42.9,25.31,67.62,30.5,8.13,1.71,16.6,2.67,24.16-5.87C761.49,582.69,741.46,575.17,722.31,564.75Z"/></svg>