<svg id="Layer_1" data-name="Layer 1" xmlns="http://www.w3.org/2000/svg" viewBox="0 0 1000 1000"><defs><style>.cls-1{fill:#c11f20;}</style></defs><title>RoninDojo-01b</title><path class="cls-1" d="M500,958.21a457.59,457.59,0,0,0,165.3-30.69H334.7A457.59,457.59,0,0,0,500,958.21Z"/><path class="cls-1" d="M500,40.88a457.69,457.69,0,0,0-163.5,30h327A457.69,457.69,0,0,0,500,40.88Z"/><path class="cls-1" d="M543.33,855.07c1.34,3,5.11,11.58,2,21.36l231-10.8Q793,853,808.47,839H539.61C539.37,843.75,540.56,848.82,543.33,855.07Z"/><path class="cls-1" d="M529.14,890.17a18.31,18.31,0,0,1-4.22-.52,27.8,27.8,0,0,0-6.6-.74,43.71,43.71,0,0,0-5.37.36,22.5,22.5,0,0,1-2.7.17,19,19,0,0,1-14-5.85H392.22L493,878.88a22.46,22.46,0,0,1-1.92-13.13c.56-4.09.91-8.22,1.27-12.6.24-2.77.47-5.57.77-8.4-.84.09-1.73.16-2.66.17l-1.67,0a142.19,142.19,0,0,1-18.21-1.4c-4.89-.64-13.6-3.64-16.88-16.59a44.14,44.14,0,0,1-1.3-11.41l-3.77-6c-8.31-13.3-14.92-20.52-26-20.52l-1.43,0c-3.3,0-13.36,0-20.63-8.88L393,770.88l10.45-5.82c1.66-.93,6.71-3.74,7.55-5.64.95-2.17-.05-8.7-.42-11.15,0-.16-.05-.3-.08-.42l-.77-.07a53.69,53.69,0,0,1-8.62-1.2c-8.58-2.1-11.27-6.72-12-10.23-.61-2.88-2.71-5.08-6.36-8.71a56.88,56.88,0,0,1-8.51-10l-9.72-15.35h3.27a18.64,18.64,0,0,0-4.76-3.86,11.9,11.9,0,0,1-6.35-7.78A14.09,14.09,0,0,1,359,679.14a11.58,11.58,0,0,1,9.45-5.11,12.12,12.12,0,0,1,8.64,3.88,25.13,25.13,0,0,1,2.67,2.26c.23.21.45.43.69.62s.44.35.63.49a21.76,21.76,0,0,1,4.93-4.76c7.56-5.2,11.76-14,16.22-23.31,1.61-3.37,3.28-6.86,5.16-10.29.17-.32.71-1.29-.38-4.36-2.91-8.2-2.42-16.29,1.4-23.39,2.56-4.75,3.52-10.29,3.2-18.53l-.06-1.66c-.24-5.75-.51-12.19,1.22-19l-.41-.17c-4-1.57-9.66-4.37-12.17-10.6a16.35,16.35,0,0,1-.83-9.19,10,10,0,0,1-2.3-4.88s0-.05,0-.08c-.71,0-1.43,0-2.15.06-1,0-2,.09-3,.09a28.5,28.5,0,0,1-4.21-.29l-8.12-1.25-.35-8.21c0-.23,0-.45,0-.68a10.64,10.64,0,0,1-1.75.89,1.75,1.75,0,0,0-.35.18c-.44.55-1,3.14-1.29,4.69-.19.93-.38,1.87-.6,2.8-2.27,9.73-9.94,15.77-20,15.77a25.64,25.64,0,0,1-3.13-.19,7.25,7.25,0,0,0-1-.07c-1.92,0-3.6.76-7.9,5-48.83,48.5-90,88.36-138.36,123-15.36,11-33.57,23.13-55.46,27.24a32.7,32.7,0,0,1-6.19.62,22.78,22.78,0,0,1-16.78-6.88c-3.76-3.81-5.14-7.9-4.08-12.16.72-2.93,2.88-6.83,9-8.78,55.5-17.54,96.45-56.89,139.81-98.54l4.36-4.18c5.57-5.35,11.21-10.83,16.66-16.13,10.55-10.25,21.45-20.85,32.44-31.05,3.81-3.53,4.3-5.66,3.91-8.83a50,50,0,0,1-.05-9.54c0-.52.06-1,.09-1.56.55-10.23,6.69-17.94,16-20.12l.24-.07a12.49,12.49,0,0,0,1.53-2.48c7.28-13.77,9.88-29.17,12.52-45.48l-5.28,3.38-3.33-5.63c-2,2.46-5.71,6.14-11.28,6.14a12.11,12.11,0,0,1-8-3c-4.77,2.86-8.58,3.93-16.17,3.93-1.81,0-3.84,0-6.4-.1L280.3,459l22-17.24c3.59-2.81,7.14-5.14,10.57-7.38,3.07-2,5.94-3.88,8.46-5.88a11.82,11.82,0,0,1-1-2c-.95-2.42-1.9-7.34,2.3-13l.81-1.07.64-.86c-.53-2.65-1.27-7.51,2.11-12,2.44-3.22,6.13-5,11-5.34.26-.05,1.16-.39,1.83-.65a25.4,25.4,0,0,1,9.44-2.05h1.16a18.13,18.13,0,0,0,12.88-5.82c-.4,0-.81-.06-1.22-.06a14,14,0,0,0-4.09.63,18.86,18.86,0,0,1-5.6.92c-5.23,0-11.67-3-13.38-11.33l-.15-.14a24.93,24.93,0,0,1-3.08-3.29c-7.91-10.53-2.66-18.05,0-20.79l7-7.26,7.22,7c5.89,5.7,13,7.83,21,9.16.55-3.09,2.25-6.85,6.56-10.51a5.5,5.5,0,0,0,1.68-2.88c.78-2.65,2.86-9.7,9.45-13.1,4-2.08,5.76-6.21,8.47-13.33.3-.79.6-1.57.91-2.35,1.46-3.77,3.3-7.67,6.75-10.61,5.25-4.46,8.53-10.95,11.05-16.71,3.42-7.83,8.95-13.13,16.42-15.77a97.67,97.67,0,0,0,31.33-18.59l0,0c-.47-.52-.93-1-1.4-1.59-2.46-2.79-4.78-5.44-7.22-6.82a22.63,22.63,0,0,1-2.54-1.64L445,248.82l2.1-2.69H437.06l9.39-5.79a14.79,14.79,0,0,1-1.16-5.19L445,228.3l6.27-2.76a15.79,15.79,0,0,1,6.4-1.36,17.39,17.39,0,0,1,5.78,1l2.11-2.71-31.75,3.83,27.35-21.92a54.26,54.26,0,0,0,4.91-4.4l-9.78-5.33,13.9-9.16a10.13,10.13,0,0,0,2.92-3A23.15,23.15,0,0,1,460.88,186a24.93,24.93,0,0,1-3.32-.23l-36.62-5L447.06,170l5.44-7.76L175.75,175.15q-13.35,13.33-25.57,27.73h264L139.68,215.72q-11.62,14.73-22,30.42H342.78L110.64,257q-9.94,15.93-18.59,32.72H257.48L88.06,297.63q-8.82,18-16.1,36.82H193L69.77,340.21A457.9,457.9,0,0,0,41.33,499.55c0,194.18,120.68,360.18,291.13,427.1l374.13-17.5a457.45,457.45,0,0,0,44.27-25.56H541.73A15.13,15.13,0,0,1,529.14,890.17Z"/><path d="M428.85,453.59a16.44,16.44,0,0,1-7.29-4.38c-2.48,3.8-5,7.52-7.55,11.21l-1.16,1.68a13.8,13.8,0,0,1,3.22,2.37c2.13,2.13,6.5,8,1.19,16.62-.07.1-.13.2-.19.3-5.44,10.07-12.51,18.51-19.34,26.67l-2.27,2.71c-5.37,6.46-8.69,11.43-9.62,17.57l.19-.14c.18-.13.36-.25.53-.39,4.23-4,8.69-7.83,13-11.53,7.95-6.81,15.46-13.25,21.77-20.91,2.7-3.29,2.78-4.86,2.64-6.18-.76-6.73,1.83-12.57,7.7-17.36.62-.52,1.25-1,1.89-1.53,1.32-1.05,2.59-2.07,3.67-3.07a20.07,20.07,0,0,1-5.13-9.61C431.24,454.34,429.5,453.79,428.85,453.59Z"/><path class="cls-1" d="M958.67,499.55c0-195.08-121.79-361.7-293.47-428L295.62,88.82a457.72,457.72,0,0,0-45.4,26H601l-375.9,17.57q-17,12.76-32.77,27H454.41c.8-1.22,1.59-2.47,2.4-3.79,2.57-4.19,5.48-8.94,9.84-13,6.29-5.78,12.56-8.59,19.18-8.59a23.73,23.73,0,0,1,6.88,1c1.23-1.05,2.45-2.12,3.67-3.18,2.88-2.51,5.87-5.12,9-7.62A24.76,24.76,0,0,1,521,118.57a25.07,25.07,0,0,1,18.23,8.19c.71.75,1.3,1.47,1.83,2.1.32.39.75.91,1,1.15a18.07,18.07,0,0,1,8.22,19.34,48.51,48.51,0,0,1,13.4,29.85c1.21,13.62-1.31,26.59-3.74,39.13-.52,2.68-1,5.36-1.52,8,0,.15,0,.28-.07.4.42.44,1,1,1.41,1.4,5.27,2.46,7.32,6.09,8.1,8.75a13.6,13.6,0,0,1-.82,9.48c7.69,4,14.43,9.2,21,14.21l3.2,2.45.26.2c8.5,1.28,12.26,6.25,13.92,10.64,11.15,6.16,12.42,18.07,12.92,22.78.54,5.1,2.42,10.24,4.41,15.68l.61,1.65a136.51,136.51,0,0,1,5,19.4c.4,2,.81,4,1.25,6,1,4.42,1.76,6.34,3,7.35,8.07,6.47,7.46,15.08,7.26,17.91-.44,6.18-.75,12.52-1.06,18.66-.28,5.58-.56,11.35-.94,17.06a27.48,27.48,0,0,1-5.15,14.71c-4.55,6.08-5.2,13-2.4,25.42,1.47,6.52,2.7,13.47,3.78,21.27,1.37,10,4.74,12.9,7.85,14.45,4.67,2.31,10.41,7.32,11.29,18,.19,2.32,1,4.24,4.57,7.16,24.22,19.8,46.43,35.39,67.9,47.67,20.46,11.71,38,17.38,56.85,18.41l20.05,1.08-13,15.35c-6,7.14-13.6,10.77-22.52,10.77h0a51.14,51.14,0,0,1-10.92-1.41c-27-6-50-20-69.53-32.78-9-5.85-17.69-12.21-26.12-18.36-4.34-3.16-8.83-6.44-13.26-9.57-.6-.43-1.22-.85-1.83-1.27a13.36,13.36,0,0,1-11,5.16c-.4,0-.82,0-1.25-.05h0c3.91,5.6,7.86,11.2,11.71,16.66,4.73,6.69,9.61,13.61,14.37,20.47a72.38,72.38,0,0,1,5.64,10.32l.2.43c3.71,7.82.93,14-2.92,17.26a13.48,13.48,0,0,1-8.76,3.14,16.47,16.47,0,0,1-7.24-1.75c-6.28-3.06-9.94-8.33-12.62-12.18-5.39-7.77-11.29-15-17.53-22.67-2.38-2.93-4.78-5.88-7.17-8.88.67,3.6,1.29,7.19,1.91,10.72,2.13,12.34,4.16,24,7.82,35.32,5.2,16.08.75,31.52-11.9,41.29-1.12.86-2.28,1.89-3.51,3a70,70,0,0,1-5.91,4.85,8,8,0,0,0-3.48,5.45c-1.94,9.18-5.61,20.79-16.74,29.31-.09.52-.12,2,.86,5.57,2.65,9.82,4.92,23-1.09,38.3-1.5,3.79-1.49,9.22-1.48,15,0,2.41,0,4.91-.11,7.42-.54,12.37-3.62,22-9.7,30.28-2,2.68-2,3.84-1.27,6.19,4.86,15-1.91,27.71-17.68,33.14-1,.35-4.07,1.4-6.13,8.94a21.3,21.3,0,0,0-.52,2.31l285.4-13.34q13.1-13.17,25.1-27.37H579l282.16-13.19q11.43-14.57,21.67-30.06H650.41L890,741.06q9.79-15.78,18.31-32.37H735.71l176.73-8.26q8.7-17.82,15.88-36.48H800.15l130.46-6.1A457.65,457.65,0,0,0,958.67,499.55Z"/><path d="M720.72,557.74c-24.48-14-47.28-30.64-69.26-48.61-4.58-3.75-7.69-7.87-8.2-14.08-.35-4.21-1.78-7.92-5.77-9.9-8.83-4.38-12.06-12.92-13.32-22-.95-6.89-2.1-13.68-3.62-20.43-2.64-11.73-3.62-23.23,4.14-33.61a17.62,17.62,0,0,0,3.18-9.39c.79-11.91,1.16-23.85,2-35.75.29-4-.47-6.95-3.54-9.4-4-3.24-5.42-7.92-6.54-13-1.78-8.09-3.1-16.51-5.86-24.1-2.37-6.51-4.83-12.79-5.57-19.7s-2.57-13.1-9.59-15.92a4.06,4.06,0,0,1-2.24-2.53c-.82-4.75-3.82-6-7.84-6.27-1.22-.09-2.44-1.16-3.52-2-8.18-6.21-16.21-12.79-25.44-17.1-5.29-2.46-6-5.15-2.91-9.73,2-3,2.59-5.31-1.63-7.12a7.22,7.22,0,0,1-1.47-.87l-.71-.66c-3.78-3.63-5.43-5.41-4.44-10.94,2.65-14.74,6.48-29.53,5.15-44.52-.87-9.84-5.16-19.69-13.36-26.22-1.68-1.34-1-2.57-.55-4,1.61-4.71,1.26-8.66-3.31-11.54-1.76-1.11-3-3.1-4.51-4.68-5.76-6.09-13.88-6.79-20.36-1.55-4.65,3.77-9.09,7.81-13.66,11.69-1.81,1.55-3.7,2.75-6.23,1.63-7.15-3.16-13-.31-18.31,4.62-4.95,4.55-7.72,10.76-11.75,16.5,2.94.17,4.15-2.56,6.76-3.07-.82,6.4-4.15,10.21-9.52,12.43,6.58.9,10.91-2.77,14.93-7.21,2.92-3.23,5.79-7,10.33-7.15,5.53-.19,8.47-3.46,9.91-8.31,1-3.32,3-5.18,5.5-6.81,1.71-1.14,3.58-2.87,5.31.23,1.58,2.84-.57,3.65-2.17,4.66-8.88,5.64-14,14.56-18.91,23.74-.29.56-.93,1.47,0,1.53,4,.25,1.38,2.69,1,3.84-1.68,5.44-4.34,10.24-9.2,13.44,2.33,1.27,4-1.09,6.39-.89-2.73,8-7.63,13.6-14.67,19.24,6.61-.8,10.73-3.55,15.46-6.53-.22,9.38-4.15,16.21-9.2,22.69,9.68-3.34,13.59-12.52,18.66-21.71.93,3.35,1.81,5.61,2.12,7.94a55.79,55.79,0,0,1,.05,7.32c2.83-.83,3.24-4,5.2-5.91,1.92,10.4,1.26,11.36-8.95,12.39a7.23,7.23,0,0,1-1.47,0c-4.8-.44-5.2-.16-9.8,1.58-5,1.87-4.76,3.59-5.93,5.1a8.22,8.22,0,0,1-.92.88l-.32.21h0l-.18.14c-6.62,4.3-10.94-4.19-16.86-1.58.12,2.53,1.86,3.81,3.66,4.82,4.54,2.55,7.79,6.66,11.18,10.47s5.07,8.92.87,12.7a107.83,107.83,0,0,1-36.3,22c-5.1,1.81-8.36,5.25-10.59,10.36-3.34,7.64-7.3,14.85-13.73,20.31-1.82,1.56-3,4.23-3.92,6.63-3.17,8.14-5.69,16.59-14.1,20.93-2.45,1.27-3.62,4.24-4.45,7a15.5,15.5,0,0,1-4.8,7.68c-4.5,3.83-4.3,7.36.35,10.93,1.07.82,3.28,1.16,2.17,4.24-15-2.51-31-2.06-43.55-14.25-2.48,2.59-1.17,5.23.8,7.86,1.67,2.21,4.51,3.47,4.92,6.68.54,4.32,3.11,4.61,6.37,3.61A23.55,23.55,0,0,1,369,377c6.38,2.17,8,6.55,3.83,12-6.1,8-14.41,12.87-24.13,12.57-4.26-.13-7.21,2.42-10.91,2.67-7.27.5-2.75,6.09-3.63,9.25-.68,2.48-2.15,4.07-3.54,6-1.63,2.21-1.91,4.43,1.67,5.12,1.47.29,3.07.59,4.12,2.25-6.54,10.41-17.76,14.88-27.95,22.88,13.65.3,13.66.33,22.42-5.75,2-1.41,3.66-2,4.73,1.07,2.22,6.33,5.21,3.8,7.61.4,3.45-4.88,7.75-7.7,13.23-8.37,1.75,2.6-1.08,4.79.43,7.34,2.2-1.41,4.31-2.78,6.43-4.12,1.91-1.2,3.84-3.49,6.1-2.29s1.67,4.34,1.29,6.48c-3.65,20.66-5.57,41.83-15.56,60.71-2,3.7-3.94,6.59-8.34,7.62-5.12,1.2-8,5.22-8.31,10.91a54.13,54.13,0,0,0-.11,9.35c.91,7.36-1.73,12.47-7,17.38-16.58,15.39-32.64,31.38-49,47.06-44.46,42.67-88.4,86.19-148.08,105.05-3.34,1.06-2.72,2.49-.86,4.37,4,4.06,8.9,4.43,14,3.47,19.33-3.64,35.65-14.18,51.48-25.54,49.7-35.67,93.54-78.71,137.14-122,5-5,9.69-8.71,17.16-7.8,5.45.66,10.67-1.34,12.21-7.92,1.36-5.83,1.59-12,8.23-14.67,1.2-.49,2-3.21,2.24-5,1.26-9.27,6.27-16.22,11.9-23,7.35-8.83,15-17.49,20.52-27.78.78-1.45,2.47-3.28.71-5a4.44,4.44,0,0,0-5.17-.44,19.55,19.55,0,0,0-5.39,4.26c-3.72,4.13-7.22,8.49-11.66,13.79,1.09-7.7,4.84-12.59,7.94-17.67,12.42-20.37,28.65-38.35,35.08-62.46a4.93,4.93,0,0,1,1.4-2.44c8.56-7.09,7.32-18.09,7.65-27.14.26-7.24,3.55-9.41,7.9-13.73,1.68,9.87-1.38,18.51-1.41,27.26,0,13.35-5.9,26.12-14.13,37.05-1.36,1.8-2,4.3-2.67,6.56-1.11,3.47-1.13,6.06,3.29,7.45,5,1.57,8.48,5.51,9.93,11,.63,2.37,1.43,4.72,3.64,5.82,6.52,3.26,4.17,7.48.93,11.29-2.4,2.81-5.47,5-8.34,7.37-2.68,2.19-4.52,4.73-4.1,8.52.61,5.43-1.59,9.68-4.85,13.64-10.52,12.77-23.85,22.2-35.68,33.4-1.8,1.71-4.38,2.43-4.23,5.88,6.67,1,15.66-3.28,17.74,8.36.07.41,1.14.68,1.78.92a2.75,2.75,0,0,1,1.67,4c-3.1,6.73-.4,9.81,5.65,12.17,3.89,1.52,8.78,4.6,7,9.9-2.2,6.71-1.7,13.24-1.44,19.89.31,8.3-.42,16.27-4.39,23.65-2.66,4.93-2.6,10.18-.79,15.31,1.53,4.31,1.88,8.57-.27,12.51-7.15,13.06-11.58,28.15-24.47,37a11.77,11.77,0,0,0-2.95,3c-4.57,6.56-9.5,4.92-14.56.84-1.09-.88-2-2-3.18-2.73s-2.3-3.09-3.86-.91c-.92,1.29-1.46,3.69.24,4.51,8.7,4.21,12.73,14.94,22.45,17.66,1.9.53,3.5,1.87,2.92,4.11s-2.64.94-4,1.06c-1.72.14-3.46,0-6,0,5.21,8.22,14.16,12.28,16.2,22,.25,1.18,2.91,2.15,4.6,2.56a52.4,52.4,0,0,0,8.13,1c5.24.45,7.94,3,8.84,8.85,2.41,15.69.81,19.83-12.15,27,3.67,4.48,8.56,5.31,13.63,5.21,17.4-.33,26.69,11.64,35.18,25.21,2.71-1,3.68-5.3,7.73-5.25-1.81,8.5-3.65,16.89-1.46,25.53,1.22,4.82,3.64,8.5,8.49,9.14a124.68,124.68,0,0,0,18.39,1.29c8.38-.15,11.74-5.78,7.91-13.5-3.21-6.46-3.48-13.28-4.17-20.17-.57-5.71-.78-11.56-2.15-17.07-1.24-5,0-7.81,4.38-9.41,5-1.81,7.31,1.3,8.26,5.66,3.59,16.49,5.59,33.16,1.22,49.77-3.19,12.12-3.05,24.63-4.74,36.91-1.1,8,3.91,13.08,10.76,12.23a42.76,42.76,0,0,1,15.56.59c3.87.93,6-.91,7.6-4.23,2.83-5.71,1.68-11.23-.69-16.59-3.95-8.93-6.09-18-3.4-27.84,2-7.23,5.68-13.4,12.53-15.75,9.91-3.42,14.76-10.28,11.41-20.61-2-6.27-.54-10.72,2.73-15.18,5.39-7.36,7.38-15.72,7.77-24.81.38-8.62-.71-18,2.27-25.62,4.4-11.14,3.68-21.14.74-32-1.46-5.43-2.6-12.08,2.62-16,7.84-6,11.17-14.23,13.14-23.52a18,18,0,0,1,7.46-11.53c3.2-2.27,6-5.17,9.11-7.58,10.16-7.85,12.06-19.28,8.49-30.3-6.65-20.58-8.19-42.19-13.38-63a24.5,24.5,0,0,1,2.48-18.7c1.39,2.24,2.25,3.65,3.12,5,12,19.1,27.71,35,40.49,53.4,2.41,3.47,4.9,7,8.77,8.89,1.68.81,3.73,1.17,5.22-.08,1.66-1.39,1.1-3.59.3-5.29a65.88,65.88,0,0,0-5-9.34c-10.21-14.72-20.67-29.25-30.84-44-7.91-11.48-15.52-23.19-23.27-34.8,6.92,3,12.55,7.51,19.1,10.19,4.21,1.72,8.12,2.13,6.88-6,3.46,4.43,2.33,8.55,3.22,12.18,1.16,4.7,2.95,9.3,7.8,9.67,5,.37,5.23-5,6.47-8.68.1-.3.59-.45,1.18-.87,3.79,2.46,7.73,4.85,11.5,7.52,13,9.22,25.73,19,39.07,27.72,20.71,13.52,42,26,66.21,31.38,8,1.76,16.25,2.74,23.66-6C759.09,576.21,739.47,568.47,720.72,557.74Z"/></svg>