<svg id="Layer_1" data-name="Layer 1" xmlns="http://www.w3.org/2000/svg" viewBox="0 0 1000 1000"><defs><style>.cls-1{fill:#c11f20;}</style></defs><title>RoninDojo-01c</title><path class="cls-1" d="M500,958.21a457.59,457.59,0,0,0,165.3-30.69H334.7A457.59,457.59,0,0,0,500,958.21Z"/><path class="cls-1" d="M500,40.88a457.69,457.69,0,0,0-163.5,30h327A457.69,457.69,0,0,0,500,40.88Z"/><path class="cls-1" d="M502.73,151.3c1.6-1,3.75-1.82,2.17-4.66-1.73-3.1-3.6-1.37-5.31-.23-2.47,1.63-4.51,3.49-5.5,6.81a12.28,12.28,0,0,1-3.76,6.19h3.36A39.06,39.06,0,0,1,502.73,151.3Z"/><path class="cls-1" d="M958.67,499.55c0-195.08-121.79-361.7-293.47-428L295.62,88.82a457.72,457.72,0,0,0-45.4,26H601l-375.9,17.57q-17,12.76-32.77,27H466.22a43.36,43.36,0,0,1,7.21-9.38c5.35-4.93,11.16-7.78,18.31-4.62,2.53,1.12,4.42-.08,6.23-1.63,4.57-3.88,9-7.92,13.66-11.69,6.48-5.24,14.6-4.54,20.36,1.55,1.49,1.58,2.75,3.57,4.51,4.68,4.57,2.88,4.92,6.83,3.31,11.54-.49,1.43-1.13,2.66.55,4,8.2,6.53,12.49,16.38,13.36,26.22,1.33,15-2.5,29.78-5.15,44.52-1,5.53.66,7.31,4.44,10.94l.71.66a7.22,7.22,0,0,0,1.47.87c4.22,1.81,3.67,4.08,1.63,7.12-3.08,4.58-2.38,7.27,2.91,9.73C569,258.23,577,264.81,585.17,271c1.08.82,2.3,1.89,3.52,2,4,.29,7,1.52,7.84,6.27a4.06,4.06,0,0,0,2.24,2.53c7,2.82,8.85,8.92,9.59,15.92s3.2,13.19,5.57,19.7c2.76,7.59,4.08,16,5.86,24.1,1.12,5.08,2.5,9.76,6.54,13,3.07,2.45,3.83,5.43,3.54,9.4-.84,11.9-1.21,23.84-2,35.75a17.62,17.62,0,0,1-3.18,9.39c-7.76,10.38-6.78,21.88-4.14,33.61,1.52,6.75,2.67,13.54,3.62,20.43,1.26,9.13,4.49,17.67,13.32,22,4,2,5.42,5.69,5.77,9.9.51,6.21,3.62,10.33,8.2,14.08,22,18,44.78,34.61,69.26,48.61,18.75,10.73,38.37,18.47,61.28,19.71-7.41,8.78-15.7,7.8-23.66,6-24.2-5.34-45.5-17.86-66.21-31.38-13.34-8.71-26-18.5-39.07-27.72-3.77-2.67-7.71-5.06-11.5-7.52-.59.42-1.08.57-1.18.87-1.24,3.72-1.45,9-6.47,8.68-4.85-.37-6.64-5-7.8-9.67-.89-3.63.24-7.75-3.22-12.18,1.24,8.17-2.67,7.76-6.88,6-6.55-2.68-12.18-7.19-19.1-10.19,7.75,11.61,15.36,23.32,23.27,34.8,10.17,14.75,20.63,29.28,30.84,44a65.88,65.88,0,0,1,5,9.34c.8,1.7,1.36,3.9-.3,5.29-1.49,1.25-3.54.89-5.22.08-3.87-1.89-6.36-5.42-8.77-8.89-12.78-18.41-28.54-34.3-40.49-53.4-.87-1.39-1.73-2.8-3.12-5a24.5,24.5,0,0,0-2.48,18.7c5.19,20.82,6.73,42.43,13.38,63,3.57,11,1.67,22.45-8.49,30.3-3.12,2.41-5.91,5.31-9.11,7.58A18,18,0,0,0,584,657.72c-2,9.29-5.3,17.57-13.14,23.52-5.22,4-4.08,10.61-2.62,16,2.94,10.88,3.66,20.88-.74,32-3,7.58-1.89,17-2.27,25.62-.39,9.09-2.38,17.45-7.77,24.81-3.27,4.46-4.76,8.91-2.73,15.18,3.35,10.33-1.5,17.19-11.41,20.61-6.85,2.35-10.55,8.52-12.53,15.75a33.18,33.18,0,0,0-1,5.43l295.55-13.82q13.1-13.17,25.1-27.37H579l282.16-13.19q11.43-14.57,21.67-30.06H650.41L890,741.06q9.79-15.78,18.31-32.37H735.71l176.73-8.26q8.7-17.82,15.88-36.48H800.15l130.46-6.1A457.65,457.65,0,0,0,958.67,499.55Z"/><path class="cls-1" d="M534.18,859.11c2.37,5.36,3.52,10.88.69,16.59-.22.44-.45.86-.69,1.25l242.18-11.32Q793,853,808.47,839H529.61C529.37,845.93,531.28,852.56,534.18,859.11Z"/><path class="cls-1" d="M501,867.11c1.29-9.33,1.52-18.8,2.95-28.12H480.79l23.29-1.09c.42-2.58.94-5.15,1.61-7.7,4.37-16.61,2.37-33.28-1.22-49.77-1-4.36-3.27-7.47-8.26-5.66-4.38,1.6-5.62,4.38-4.38,9.41,1.37,5.51,1.58,11.36,2.15,17.07.69,6.89,1,13.71,4.17,20.17,3.83,7.72.47,13.35-7.91,13.5a124.68,124.68,0,0,1-18.39-1.29c-4.85-.64-7.27-4.32-8.49-9.14-2.19-8.64-.35-17,1.46-25.53-4.05-.05-5,4.27-7.73,5.25-8.49-13.57-17.78-25.54-35.18-25.21-5.07.09-10-.73-13.63-5.21,13-7.21,14.56-11.35,12.15-27-.9-5.86-3.6-8.4-8.84-8.85a52.4,52.4,0,0,1-8.13-1c-1.69-.41-4.35-1.38-4.6-2.56-2-9.71-11-13.77-16.2-22,2.57,0,4.31.11,6,0,1.4-.12,3.45,1.22,4-1.06s-1-3.57-2.92-4.11c-9.72-2.72-13.75-13.45-22.45-17.66-1.7-.82-1.16-3.22-.24-4.51,1.56-2.18,2.7.16,3.86.91s2.09,1.85,3.18,2.73c5.06,4.08,10,5.72,14.56-.84a11.77,11.77,0,0,1,2.95-3c12.89-8.88,17.32-24,24.47-37,2.15-3.94,1.8-8.2.27-12.51-1.81-5.13-1.87-10.38.79-15.31,4-7.38,4.7-15.35,4.39-23.65-.26-6.65-.76-13.18,1.44-19.89,1.73-5.3-3.16-8.38-7-9.9-6.05-2.36-8.75-5.44-5.65-12.17a2.75,2.75,0,0,0-1.67-4c-.64-.24-1.71-.51-1.78-.92-2.08-11.64-11.07-7.33-17.74-8.36-.15-3.45,2.43-4.17,4.23-5.88,11.83-11.2,25.16-20.63,35.68-33.4,3.26-4,5.46-8.21,4.85-13.64-.42-3.79,1.42-6.33,4.1-8.52,2.87-2.34,5.94-4.56,8.34-7.37,3.24-3.81,5.59-8-.93-11.29-2.21-1.1-3-3.45-3.64-5.82-1.45-5.52-4.93-9.46-9.93-11-4.42-1.39-4.4-4-3.29-7.45.71-2.26,1.31-4.76,2.67-6.56,8.23-10.93,14.09-23.7,14.13-37.05,0-8.75,3.09-17.39,1.41-27.26-4.35,4.32-7.64,6.49-7.9,13.73-.33,9.05.91,20.05-7.65,27.14a4.93,4.93,0,0,0-1.4,2.44c-6.43,24.11-22.66,42.09-35.08,62.46-3.1,5.08-6.85,10-7.94,17.67,4.44-5.3,7.94-9.66,11.66-13.79a19.55,19.55,0,0,1,5.39-4.26,4.44,4.44,0,0,1,5.17.44c1.76,1.75.07,3.58-.71,5-5.56,10.29-13.17,19-20.52,27.78-5.63,6.76-10.64,13.71-11.9,23-.24,1.81-1,4.53-2.24,5-6.64,2.67-6.87,8.84-8.23,14.67-1.54,6.58-6.76,8.58-12.21,7.92-7.47-.91-12.11,2.78-17.16,7.8-43.6,43.3-87.44,86.34-137.14,122-15.83,11.36-32.15,21.9-51.48,25.54-5.11,1-10,.59-14-3.47-1.86-1.88-2.48-3.31.86-4.37C194,683.61,237.89,640.09,282.35,597.42c16.34-15.68,32.4-31.67,49-47.06,5.3-4.91,7.94-10,7-17.38a54.13,54.13,0,0,1,.11-9.35c.3-5.69,3.19-9.71,8.31-10.91,4.4-1,6.38-3.92,8.34-7.62,10-18.88,11.91-40.05,15.56-60.71.38-2.14,1.08-5.22-1.29-6.48s-4.19,1.09-6.1,2.29c-2.12,1.34-4.23,2.71-6.43,4.12-1.51-2.55,1.32-4.74-.43-7.34-5.48.67-9.78,3.49-13.23,8.37-2.4,3.4-5.39,5.93-7.61-.4-1.07-3-2.7-2.48-4.73-1.07-8.76,6.08-8.77,6.05-22.42,5.75,10.19-8,21.41-12.47,27.95-22.88-1.05-1.66-2.65-2-4.12-2.25-3.58-.69-3.3-2.91-1.67-5.12,1.39-1.89,2.86-3.48,3.54-6,.88-3.16-3.64-8.75,3.63-9.25,3.7-.25,6.65-2.8,10.91-2.67,9.72.3,18-4.56,24.13-12.57,4.13-5.42,2.55-9.8-3.83-12a23.55,23.55,0,0,0-14.82-.26c-3.26,1-5.83.71-6.37-3.61-.41-3.21-3.25-4.47-4.92-6.68-2-2.63-3.28-5.27-.8-7.86,12.59,12.19,28.51,11.74,43.55,14.25,1.11-3.08-1.1-3.42-2.17-4.24-4.65-3.57-4.85-7.1-.35-10.93a15.5,15.5,0,0,0,4.8-7.68c.83-2.8,2-5.77,4.45-7,8.41-4.34,10.93-12.79,14.1-20.93.94-2.4,2.1-5.07,3.92-6.63,6.43-5.46,10.39-12.67,13.73-20.31,2.23-5.11,5.49-8.55,10.59-10.36a107.83,107.83,0,0,0,36.3-22c4.2-3.78,2.44-9-.87-12.7s-6.64-7.92-11.18-10.47c-1.8-1-3.54-2.29-3.66-4.82,5.92-2.61,10.24,5.88,16.86,1.58l.18-.14h0l.32-.21a8.22,8.22,0,0,0,.92-.88c1.17-1.51,1-3.23,5.93-5.1,4.6-1.74,5-2,9.8-1.58a7.23,7.23,0,0,0,1.47,0c10.21-1,10.87-2,8.95-12.39-2,1.88-2.37,5.08-5.2,5.91a55.79,55.79,0,0,0-.05-7.32c-.31-2.33-1.19-4.59-2.12-7.94-5.07,9.19-9,18.37-18.66,21.71,5.05-6.48,9-13.31,9.2-22.69-4.73,3-8.85,5.73-15.46,6.53,7-5.64,11.94-11.28,14.67-19.24-2.36-.2-4.06,2.16-6.39.89,4.86-3.2,7.52-8,9.2-13.44.35-1.15,2.94-3.59-1-3.84-.95-.06-.31-1,0-1.53a95.79,95.79,0,0,1,9.12-14.72l-4.35.2a10.77,10.77,0,0,1-4.41,1c-4.54.16-7.41,3.92-10.33,7.15-4,4.44-8.35,8.11-14.93,7.21,5.37-2.22,8.7-6,9.52-12.43-2.61.51-3.82,3.24-6.76,3.07,1.13-1.61,2.16-3.26,3.17-4.9l-289.1,13.52q-13.35,13.33-25.57,27.73h264L139.68,215.72q-11.62,14.73-22,30.42H342.78L110.64,257q-9.94,15.93-18.59,32.72H257.48L88.06,297.63q-8.82,18-16.1,36.82H193L69.77,340.21A457.9,457.9,0,0,0,41.33,499.55c0,194.18,120.68,360.18,291.13,427.1l374.13-17.5a457.45,457.45,0,0,0,44.27-25.56H392.22l113.38-5.3C502.19,876.43,500.22,872.41,501,867.11Z"/></svg>